#!OML:ASF I:\golf\golf\golf 2\Subject 1\2002-09-07\Subject1.ASF
:FULLY-SPECIFIED
:DEGREES
402
root -8.76202 17.8783 4.98867 -20.2246 83.2504 -37.6135
lowerback 7.56454 1.19095 -1.53504
upperback 8.84239 1.79779 4.4167
thorax 4.80949 0.828085 5.44278
lowerneck -11.0358 0.195527 3.26565
upperneck 41.1111 4.7644 -7.25293
head 17.1165 2.12225 -2.88541
rclavicle 1.31198e-014 4.05521e-014
rhumerus -16.3461 43.3473 -93.4654
rradius 63.3777
rwrist -57.2908
rhand -36.0273 -21.3154
rfingers 7.12502
rthumb -9.13616 -51.0975
lclavicle 1.31198e-014 4.05521e-014
lhumerus -17.8153 -48.4103 104.79
lradius 65.6807
lwrist 65.5405
lhand -11.5617 64.8253
lfingers 7.12502
lthumb -165.521 85.6999
rfemur -37.5212 -2.23984 19.1099
rtibia 31.2125
rfoot -6.7668 -1.23309
rtoes 3.8372
lfemur -36.4475 6.88775 -14.8254
ltibia 31.5773
lfoot -10.4333 -6.40096
ltoes -7.31187
403
root -8.76174 17.8807 4.98645 -21.156 83.4545 -38.4835
lowerback 7.66005 1.19663 -1.54129
upperback 8.85365 1.80851 4.46719
thorax 4.76623 0.833997 5.49726
lowerneck -11.0698 0.137284 3.34171
upperneck 41.137 4.68856 -7.31793
head 17.1371 2.09713 -2.94277
rclavicle 1.90833e-014 -3.97569e-015
rhumerus -16.3731 43.3799 -93.4584
rradius 63.3745
rwrist -57.3479
rhand -36.0101 -21.1573
rfingers 7.12502
rthumb -9.11954 -50.9401
lclavicle 1.90833e-014 -3.97569e-015
lhumerus -17.8501 -48.3698 104.818
lradius 65.745
lwrist 65.7269
lhand -11.8774 64.7843
lfingers 7.12502
lthumb -165.825 85.7193
rfemur -37.3875 -2.35986 19.0664
rtibia 31.1568
rfoot -6.77158 -1.32965
rtoes 4.01362
lfemur -36.3434 6.72176 -14.8397
ltibia 31.4224
lfoot -10.3571 -6.45092
ltoes -6.8928
404
root -8.76262 17.8815 4.98172 -22.522 83.7307 -39.8487
lowerback 7.71573 1.19035 -1.46282
upperback 8.83543 1.80549 4.53621
thorax 4.71613 0.837341 5.52385
lowerneck -11.1478 0.0425728 3.25493
upperneck 41.2411 4.5793 -7.28012
head 17.2027 2.04785 -2.93104
rclavicle 3.61788e-014 3.33958e-014
rhumerus -16.4225 43.3729 -93.404
rradius 63.3974
rwrist -57.4008
rhand -36.0797 -21.0473
rfingers 7.12502
rthumb -9.18675 -50.8271
lclavicle 3.61788e-014 3.33958e-014
lhumerus -17.8982 -48.4437 104.913
lradius 65.8193
lwrist 65.9463
lhand -12.2038 64.9711
lfingers 7.12502
lthumb -166.139 85.5107
rfemur -37.2992 -2.38483 18.9657
rtibia 31.08
rfoot -6.74217 -1.62001
rtoes 4.0404
lfemur -36.3346 6.54828 -14.8792
ltibia 31.2707
lfoot -10.3364 -6.56342
ltoes -7.44923
405
root -8.76221 17.8843 4.97749 -24.1486 84.0234 -41.5067
lowerback 7.7161 1.15744 -1.3097
upperback 8.80795 1.76915 4.56599
thorax 4.69257 0.828298 5.46886
lowerneck -11.1333 -0.0014129 3.21053
upperneck 41.2618 4.51846 -7.23364
head 17.2019 2.02584 -2.91152
rclavicle -3.57812e-015 3.65764e-014
rhumerus -16.4819 43.3642 -93.4359
rradius 63.3798
rwrist -57.3386
rhand -35.836 -20.9789
rfingers 7.12502
rthumb -8.95153 -50.769
lclavicle -3.57812e-015 3.65764e-014
lhumerus -17.9865 -48.5508 104.959
lradius 65.9176
lwrist 66.1014
lhand -12.6356 65.2174
lfingers 7.12502
lthumb -166.556 85.2364
rfemur -37.2254 -2.40048 18.8604
rtibia 30.9895
rfoot -6.70168 -1.93893
rtoes 4.0577
lfemur -36.3675 6.41059 -14.9366
ltibia 31.1218
lfoot -10.2267 -6.80291
ltoes -7.5478
406
root -8.76002 17.8905 4.97529 -25.2943 84.2035 -42.6627
lowerback 7.68487 1.13116 -1.24259
upperback 8.8114 1.73783 4.60375
thorax 4.71757 0.815505 5.47335
lowerneck -11.0611 0.0173617 3.22803
upperneck 41.1941 4.55022 -7.26514
head 17.149 2.03976 -2.92043
rclavicle 2.46493e-014 -4.77083e-015
rhumerus -16.4754 43.4427 -93.504
rradius 63.2803
rwrist -57.2156
rhand -35.5046 -20.8805
rfingers 7.12502
rthumb -8.63171 -50.684
lclavicle 2.46493e-014 -4.77083e-015
lhumerus -17.9964 -48.4788 104.913
lradius 65.9831
lwrist 66.2444
lhand -13.1169 65.2782
lfingers 7.12502
lthumb -167.019 85.1456
rfemur -37.134 -2.40696 18.7938
rtibia 30.8955
rfoot -6.66539 -2.13221
rtoes 4.35932
lfemur -36.3364 6.30583 -14.9629
ltibia 30.9747
lfoot -10.1324 -6.92405
ltoes -7.24342
407
root -8.75702 17.8964 4.97334 -25.948 84.329 -43.3348
lowerback 7.60833 1.11486 -1.30714
upperback 8.83473 1.71353 4.70247
thorax 4.78516 0.7961 5.61984
lowerneck -11.0288 0.0387211 3.14362
upperneck 41.1583 4.62685 -7.31072
head 17.1281 2.05435 -2.91065
rclavicle -1.19271e-015 -1.11319e-014
rhumerus -16.4218 43.6129 -93.4691
rradius 63.2103
rwrist -57.1661
rhand -35.3639 -20.8664
rfingers 7.12502
rthumb -8.49595 -50.6755
lclavicle -1.19271e-015 -1.11319e-014
lhumerus -17.8863 -48.2049 104.911
lradius 65.9639
lwrist 66.3096
lhand -12.8146 65.4414
lfingers 7.12502
lthumb -166.728 85.0012
rfemur -37.0615 -2.40843 18.7329
rtibia 30.7994
rfoot -6.66545 -2.30016
rtoes 4.45344
lfemur -36.2979 6.21462 -14.9922
ltibia 30.8364
lfoot -10.091 -7.0003
ltoes -7.12623
408
root -8.75407 17.9002 4.97239 -26.4219 84.5381 -43.8397
lowerback 7.5282 1.13946 -1.35335
upperback 8.85793 1.74464 4.73745
thorax 4.85003 0.807109 5.68571
lowerneck -11.061 -0.00447877 3.11573
upperneck 41.1559 4.57729 -7.3192
head 17.1301 2.03057 -2.91694
rclavicle -5.56597e-015 -1.90833e-014
rhumerus -16.3781 43.544 -93.4179
rradius 63.2164
rwrist -57.2061
rhand -35.2437 -20.7564
rfingers 7.12502
rthumb -8.37993 -50.5702
lclavicle -5.56597e-015 -1.90833e-014
lhumerus -17.7909 -48.2102 104.888
lradius 65.945
lwrist 66.2915
lhand -12.8706 65.4103
lfingers 7.12502
lthumb -166.782 85.0288
rfemur -37.0035 -2.48799 18.6144
rtibia 30.6953
rfoot -6.66493 -2.4487
rtoes 4.2368
lfemur -36.2915 6.11667 -15.1136
ltibia 30.6934
lfoot -10.0677 -7.19685
ltoes -7.36659
409
root -8.75192 17.9026 4.97157 -27.1013 84.7328 -44.5594
lowerback 7.47066 1.21722 -1.29587
upperback 8.86999 1.85072 4.71245
thorax 4.88496 0.863804 5.62425
lowerneck -11.1266 -0.0941209 3.18278
upperneck 41.1571 4.39948 -7.26401
head 17.1292 1.97622 -2.93352
rclavicle -2.66371e-014 -2.8625e-014
rhumerus -16.3174 43.3191 -93.3984
rradius 63.2097
rwrist -57.2324
rhand -35.0459 -20.4263
rfingers 7.12502
rthumb -8.18907 -50.2476
lclavicle -2.66371e-014 -2.8625e-014
lhumerus -17.7273 -48.4001 104.776
lradius 65.921
lwrist 66.0671
lhand -12.5881 65.3087
lfingers 7.12502
lthumb -166.51 85.1482
rfemur -36.9628 -2.62031 18.5333
rtibia 30.5892
rfoot -6.59721 -2.46368
rtoes 4.20769
lfemur -36.2929 6.07923 -15.2398
ltibia 30.5245
lfoot -10.0513 -7.38905
ltoes -7.80623
410
root -8.7488 17.9076 4.96822 -28.8541 84.8558 -46.2857
lowerback 7.47967 1.27651 -1.16824
upperback 8.88879 1.93688 4.74888
thorax 4.89277 0.914291 5.58749
lowerneck -11.1421 -0.161034 3.23933
upperneck 41.1459 4.27552 -7.24509
head 17.1148 1.93906 -2.95498
rclavicle -1.90833e-014 -6.20208e-014
rhumerus -16.2908 43.3391 -93.3463
rradius 63.2669
rwrist -57.2621
rhand -34.924 -20.1417
rfingers 7.12502
rthumb -8.07144 -49.9675
lclavicle -1.90833e-014 -6.20208e-014
lhumerus -17.7661 -48.5079 104.786
lradius 66.3134
lwrist 66.9194
lhand -14.0612 65.5037
lfingers 7.12502
lthumb -167.93 84.8644
rfemur -36.8287 -2.73463 18.5703
rtibia 30.4842
rfoot -6.55114 -2.49753
rtoes 4.17436
lfemur -36.1888 6.04453 -15.2301
ltibia 30.3275
lfoot -10.0107 -7.51047
ltoes -8.07849
